<svg width="1200" height="760" viewBox="0 0 1200 760" fill="none" xmlns="http://www.w3.org/2000/svg">
  <rect width="1200" height="760" rx="28" fill="#EEF4F8"/>
  <rect x="34" y="34" width="1132" height="692" rx="24" fill="#0F1B28"/>
  <rect x="34" y="34" width="1132" height="56" rx="24" fill="#132335"/>
  <circle cx="78" cy="62" r="8" fill="#D59A2A"/>
  <circle cx="104" cy="62" r="8" fill="#0D9DB8"/>
  <circle cx="130" cy="62" r="8" fill="#44B07A"/>
  <text x="170" y="69" fill="#DDEAF3" font-family="Arial, sans-serif" font-size="22" font-weight="700">Operator Console Overview</text>

  <rect x="64" y="120" width="270" height="570" rx="18" fill="#172839"/>
  <text x="92" y="162" fill="#E9F3FA" font-family="Arial, sans-serif" font-size="24" font-weight="700">System State</text>
  <rect x="92" y="188" width="214" height="84" rx="14" fill="#20394F"/>
  <text x="110" y="224" fill="#7FDCB8" font-family="Arial, sans-serif" font-size="20" font-weight="700">Connected</text>
  <text x="110" y="252" fill="#C7D8E6" font-family="Arial, sans-serif" font-size="16">Status stream active</text>
  <rect x="92" y="292" width="214" height="84" rx="14" fill="#20394F"/>
  <text x="110" y="328" fill="#7FDCB8" font-family="Arial, sans-serif" font-size="20" font-weight="700">Safe to operate</text>
  <text x="110" y="356" fill="#C7D8E6" font-family="Arial, sans-serif" font-size="16">No active subsystem fault</text>
  <rect x="92" y="396" width="214" height="240" rx="14" fill="#20394F"/>
  <text x="110" y="432" fill="#E9F3FA" font-family="Arial, sans-serif" font-size="20" font-weight="700">Watch items</text>
  <text x="110" y="470" fill="#C7D8E6" font-family="Arial, sans-serif" font-size="16">• Position feedback</text>
  <text x="110" y="500" fill="#C7D8E6" font-family="Arial, sans-serif" font-size="16">• Tool state</text>
  <text x="110" y="530" fill="#C7D8E6" font-family="Arial, sans-serif" font-size="16">• Clamp state</text>
  <text x="110" y="560" fill="#C7D8E6" font-family="Arial, sans-serif" font-size="16">• Safety signals</text>
  <text x="110" y="590" fill="#C7D8E6" font-family="Arial, sans-serif" font-size="16">• Fault indicators</text>

  <rect x="362" y="120" width="430" height="332" rx="18" fill="#172839"/>
  <text x="390" y="162" fill="#E9F3FA" font-family="Arial, sans-serif" font-size="24" font-weight="700">Manipulator Overview</text>
  <rect x="414" y="224" width="326" height="24" rx="12" fill="#364F63"/>
  <rect x="472" y="248" width="18" height="160" rx="9" fill="#2FB174"/>
  <rect x="648" y="248" width="18" height="160" rx="9" fill="#D24B4B"/>
  <rect x="478" y="308" width="176" height="18" rx="9" fill="#7D92A4"/>
  <circle cx="566" cy="318" r="20" fill="#0D9DB8"/>
  <text x="390" y="400" fill="#C7D8E6" font-family="Arial, sans-serif" font-size="16">Illustrative visual reference for the operator view.</text>

  <rect x="362" y="476" width="430" height="214" rx="18" fill="#172839"/>
  <text x="390" y="518" fill="#E9F3FA" font-family="Arial, sans-serif" font-size="24" font-weight="700">Command and Response</text>
  <rect x="392" y="544" width="144" height="46" rx="12" fill="#0D5F8F"/>
  <text x="432" y="573" fill="white" font-family="Arial, sans-serif" font-size="18" font-weight="700">Move</text>
  <rect x="552" y="544" width="144" height="46" rx="12" fill="#0D9DB8"/>
  <text x="574" y="573" fill="white" font-family="Arial, sans-serif" font-size="18" font-weight="700">Tool change</text>
  <rect x="392" y="610" width="304" height="48" rx="12" fill="#20394F"/>
  <text x="414" y="640" fill="#E9F3FA" font-family="Arial, sans-serif" font-size="18">Last response: acknowledged</text>

  <rect x="820" y="120" width="316" height="570" rx="18" fill="#172839"/>
  <text x="848" y="162" fill="#E9F3FA" font-family="Arial, sans-serif" font-size="24" font-weight="700">Status Detail</text>
  <rect x="848" y="192" width="260" height="112" rx="14" fill="#20394F"/>
  <text x="872" y="228" fill="#E9F3FA" font-family="Arial, sans-serif" font-size="18">Tool state</text>
  <text x="872" y="258" fill="#C7D8E6" font-family="Arial, sans-serif" font-size="16">Current tool, changer position</text>
  <rect x="848" y="328" width="260" height="112" rx="14" fill="#20394F"/>
  <text x="872" y="364" fill="#E9F3FA" font-family="Arial, sans-serif" font-size="18">Clamp state</text>
  <text x="872" y="394" fill="#C7D8E6" font-family="Arial, sans-serif" font-size="16">Engaged / released feedback</text>
  <rect x="848" y="464" width="260" height="112" rx="14" fill="#20394F"/>
  <text x="872" y="500" fill="#E9F3FA" font-family="Arial, sans-serif" font-size="18">Faults</text>
  <text x="872" y="530" fill="#C7D8E6" font-family="Arial, sans-serif" font-size="16">Warnings, stale status, interlocks</text>
  <text x="76" y="712" fill="#546879" font-family="Arial, sans-serif" font-size="18">Illustrative placeholder. Replace with a real screenshot from the commissioned operator station when available.</text>
</svg>
